<svg xmlns="http://www.w3.org/2000/svg" version="1.1" xmlns:xlink="http://www.w3.org/1999/xlink" xmlns:svgjs="http://svgjs.dev/svgjs" width="1000" height="449" viewBox="0 0 1000 449"><g transform="matrix(1,0,0,1,-0.6060606060606233,0.371404142484522)"><svg viewBox="0 0 396 178" data-background-color="#ffffff" preserveAspectRatio="xMidYMid meet" height="449" width="1000" xmlns="http://www.w3.org/2000/svg" xmlns:xlink="http://www.w3.org/1999/xlink"><g id="tight-bounds" transform="matrix(1,0,0,1,0.2400000000000091,-0.14723816784464816)"><svg viewBox="0 0 395.52 177.2944763356893" height="177.2944763356893" width="395.52"><g><svg viewBox="0 0 395.52 177.2944763356893" height="177.2944763356893" width="395.52"><g><svg viewBox="0 0 395.52 177.2944763356893" height="177.2944763356893" width="395.52"><g id="textblocktransform"><svg viewBox="0 0 395.52 177.2944763356893" height="177.2944763356893" width="395.52" id="textblock"><g><rect width="395.52" height="128.4988527535484" fill="none" stroke-width="8.962371322224001" stroke="#73dee4" data-fill-palette-color="none" data-stroke-palette-color="tertiary"></rect><rect width="395.52" height="49.7956235821409" y="128.4988527535484" fill="#73dee4" data-fill-palette-color="tertiary"></rect></g><g><svg viewBox="0 0 395.52 127.49885275354839" height="127.49885275354839" width="395.52"><g transform="matrix(1,0,0,1,23.461705032,23.46170503200001)"><svg width="348.596589936" viewBox="4.25 -36.5 206.13 47.65" height="80.57544268954838" data-palette-color="#73dee4"><path d="M16.55 0L4.25 0 4.25-35.5 16.55-35.5Q22.25-35.5 26.08-33.13 29.9-30.75 31.8-26.73 33.7-22.7 33.7-17.8L33.7-17.8Q33.7-12.4 31.6-8.4 29.5-4.4 25.65-2.2 21.8 0 16.55 0L16.55 0ZM29.15-17.8L29.15-17.8Q29.15-21.8 27.68-24.9 26.2-28 23.4-29.75 20.6-31.5 16.55-31.5L16.55-31.5 8.75-31.5 8.75-4 16.55-4Q20.65-4 23.45-5.83 26.25-7.65 27.7-10.78 29.15-13.9 29.15-17.8ZM50.75 0.5L50.75 0.5Q47.8 0.5 45.4-0.58 43-1.65 41.25-3.53 39.5-5.4 38.55-7.85 37.6-10.3 37.6-13L37.6-13Q37.6-15.75 38.55-18.2 39.5-20.65 41.25-22.53 43-24.4 45.42-25.48 47.85-26.55 50.8-26.55L50.8-26.55Q53.7-26.55 56.1-25.48 58.5-24.4 60.27-22.53 62.05-20.65 63-18.2 63.95-15.75 63.95-13L63.95-13Q63.95-10.3 63-7.85 62.05-5.4 60.3-3.53 58.55-1.65 56.12-0.58 53.7 0.5 50.75 0.5ZM42.1-12.95L42.1-12.95Q42.1-10.25 43.27-8.05 44.45-5.85 46.4-4.58 48.35-3.3 50.75-3.3L50.75-3.3Q53.15-3.3 55.12-4.6 57.1-5.9 58.27-8.13 59.45-10.35 59.45-13.05L59.45-13.05Q59.45-15.75 58.27-17.95 57.1-20.15 55.12-21.45 53.15-22.75 50.75-22.75L50.75-22.75Q48.35-22.75 46.4-21.43 44.45-20.1 43.27-17.9 42.1-15.7 42.1-12.95ZM79.7 0.3L79.7 0.3Q77.05 0.3 74.82-0.78 72.59-1.85 71-3.73 69.4-5.6 68.52-8 67.65-10.4 67.65-13L67.65-13Q67.65-15.75 68.52-18.2 69.4-20.65 71.02-22.53 72.65-24.4 74.84-25.48 77.05-26.55 79.75-26.55L79.75-26.55Q83-26.55 85.42-24.95 87.84-23.35 89.5-20.9L89.5-20.9 89.5-26.1 93.4-26.1 93.4-0.3Q93.4 3.4 91.62 5.95 89.84 8.5 86.82 9.83 83.8 11.15 80.09 11.15L80.09 11.15Q75.7 11.15 72.9 9.6 70.09 8.05 68.25 5.4L68.25 5.4 70.8 3.15Q72.34 5.45 74.82 6.6 77.3 7.75 80.09 7.75L80.09 7.75Q82.5 7.75 84.52 6.88 86.55 6 87.77 4.2 89 2.4 89-0.3L89-0.3 89-4.9Q87.55-2.5 85.02-1.1 82.5 0.3 79.7 0.3ZM81.05-3.3L81.05-3.3Q82.45-3.3 83.75-3.8 85.05-4.3 86.15-5.13 87.25-5.95 88-7 88.75-8.05 89-9.15L89-9.15 89-16.65Q88.3-18.45 87-19.83 85.7-21.2 84.05-21.98 82.4-22.75 80.65-22.75L80.65-22.75Q78.65-22.75 77.07-21.9 75.5-21.05 74.4-19.63 73.3-18.2 72.7-16.45 72.09-14.7 72.09-12.9L72.09-12.9Q72.09-10.95 72.8-9.22 73.5-7.5 74.7-6.15 75.9-4.8 77.55-4.05 79.2-3.3 81.05-3.3ZM100.24-10.45L100.24-10.45 100.24-26.1 104.64-26.1 104.64-11.3Q104.64-7.3 106.04-5.3 107.44-3.3 110.19-3.3L110.19-3.3Q111.99-3.3 113.67-4.08 115.34-4.85 116.69-6.3 118.04-7.75 118.79-9.75L118.79-9.75 118.79-26.1 123.19-26.1 123.19-5Q123.19-4.2 123.52-3.83 123.84-3.45 124.59-3.4L124.59-3.4 124.59 0Q123.84 0.1 123.42 0.13 122.99 0.15 122.59 0.15L122.59 0.15Q121.34 0.15 120.44-0.63 119.54-1.4 119.49-2.55L119.49-2.55 119.39-5.6Q117.69-2.7 114.82-1.1 111.94 0.5 108.54 0.5L108.54 0.5Q104.44 0.5 102.34-2.27 100.24-5.05 100.24-10.45ZM153.19-15.6L153.19 0 148.79 0 148.79-14.6Q148.79-18.6 147.37-20.6 145.94-22.6 143.29-22.6L143.29-22.6Q141.59-22.6 139.87-21.7 138.14-20.8 136.84-19.28 135.54-17.75 134.94-15.75L134.94-15.75 134.94 0 130.54 0 130.54-36.5 134.94-36.5 134.94-20.5Q136.49-23.3 139.17-24.93 141.84-26.55 144.94-26.55L144.94-26.55Q147.29-26.55 148.87-25.73 150.44-24.9 151.39-23.4 152.34-21.9 152.77-19.93 153.19-17.95 153.19-15.6L153.19-15.6ZM157.99-7.55L157.99-7.55Q157.99-10.05 159.41-11.88 160.84-13.7 163.34-14.7 165.84-15.7 169.14-15.7L169.14-15.7Q170.89-15.7 172.84-15.43 174.79-15.15 176.29-14.6L176.29-14.6 176.29-16.5Q176.29-19.5 174.49-21.23 172.69-22.95 169.39-22.95L169.39-22.95Q167.24-22.95 165.26-22.18 163.29-21.4 161.09-19.95L161.09-19.95 159.49-23.05Q162.04-24.8 164.59-25.68 167.14-26.55 169.89-26.55L169.89-26.55Q174.89-26.55 177.79-23.78 180.69-21 180.69-16.05L180.69-16.05 180.69-5Q180.69-4.2 181.01-3.83 181.34-3.45 182.09-3.4L182.09-3.4 182.09 0Q181.44 0.1 180.96 0.15 180.49 0.2 180.19 0.2L180.19 0.2Q178.64 0.2 177.86-0.65 177.09-1.5 176.99-2.45L176.99-2.45 176.89-4.1Q175.19-1.9 172.44-0.7 169.69 0.5 166.99 0.5L166.99 0.5Q164.39 0.5 162.34-0.58 160.29-1.65 159.14-3.48 157.99-5.3 157.99-7.55ZM174.99-5.7L174.99-5.7Q175.59-6.4 175.94-7.13 176.29-7.85 176.29-8.35L176.29-8.35 176.29-11.6Q174.74-12.2 173.04-12.53 171.34-12.85 169.69-12.85L169.69-12.85Q166.34-12.85 164.26-11.53 162.19-10.2 162.19-7.9L162.19-7.9Q162.19-6.65 162.86-5.48 163.54-4.3 164.86-3.55 166.19-2.8 168.14-2.8L168.14-2.8Q170.19-2.8 172.04-3.63 173.89-4.45 174.99-5.7ZM210.38-15.6L210.38 0 205.99 0 205.99-14.6Q205.99-18.75 204.71-20.68 203.44-22.6 200.84-22.6L200.84-22.6Q199.03-22.6 197.26-21.7 195.49-20.8 194.11-19.28 192.74-17.75 192.13-15.75L192.13-15.75 192.13 0 187.74 0 187.74-26.1 191.74-26.1 191.74-20.5Q192.78-22.35 194.44-23.7 196.09-25.05 198.19-25.8 200.28-26.55 202.59-26.55L202.59-26.55Q204.84-26.55 206.36-25.73 207.88-24.9 208.76-23.43 209.63-21.95 210.01-19.95 210.38-17.95 210.38-15.6L210.38-15.6Z" opacity="1" transform="matrix(1,0,0,1,0,0)" fill="#73dee4" class="wordmark-text-0" data-fill-palette-color="primary" id="text-0"></path></svg></g></svg></g><g transform="matrix(1,0,0,1,102.81965070432943,127.49885275354839)"><svg viewBox="0 0 189.88069859134112 49.7956235821409" height="49.7956235821409" width="189.88069859134112"><g transform="matrix(1,0,0,1,20,3.2)"><svg width="149.88069859134112" viewBox="5.03 -36.25 126.9 36.74" height="43.3956235821409" data-palette-color="#ffffff"><path d="M26.32 0L5.03 0 5.03-35.77 26.78-35.77 25.98-31.47 11.08-31.47 11.08-20.68 24.27-20.68 23.49-16.5 11.08-16.5 11.08-4.3 27.12-4.3 26.32 0ZM47.24-13.92L41.33-13.92 41.33 0 35.28 0 35.28-35.77 46.29-35.77Q49.22-35.77 51.55-35.02 53.88-34.28 55.49-33 57.1-31.71 57.97-30 58.84-28.3 58.84-26.34L58.84-26.34Q58.84-24.61 58.2-23.1 57.57-21.58 56.54-20.3 55.52-19.02 54.23-17.98 52.95-16.94 51.68-16.19L51.68-16.19 62.03 0 54.88 0 47.24-13.92ZM41.33-31.47L41.33-18.09 48.68-18.09Q49.58-18.58 50.34-19.31 51.1-20.04 51.65-20.96 52.19-21.88 52.49-22.92 52.78-23.97 52.78-25.1L52.78-25.1Q52.78-26.44 52.32-27.61 51.85-28.78 50.94-29.64 50.02-30.49 48.64-30.98 47.26-31.47 45.43-31.47L45.43-31.47 41.33-31.47ZM85.22-3.81L85.22-3.81Q87.86-3.81 90.01-4.91 92.16-6.01 93.68-7.9 95.21-9.79 96.04-12.33 96.87-14.87 96.87-17.75L96.87-17.75Q96.87-20.8 95.95-23.4 95.04-26 93.43-27.91 91.82-29.81 89.62-30.88 87.42-31.96 84.86-31.96L84.86-31.96Q82.2-31.96 80.05-30.83 77.9-29.71 76.39-27.8 74.87-25.88 74.06-23.34 73.24-20.8 73.24-17.94L73.24-17.94Q73.24-14.89 74.14-12.3 75.04-9.72 76.64-7.84 78.24-5.96 80.44-4.88 82.64-3.81 85.22-3.81ZM84.39 0.49L84.39 0.49Q82.03 0.49 79.8-0.06 77.58-0.61 75.64-1.65 73.7-2.69 72.1-4.2 70.5-5.71 69.34-7.67 68.18-9.62 67.55-11.98 66.91-14.33 66.91-17.04L66.91-17.04Q66.91-19.85 67.6-22.36 68.28-24.88 69.51-27 70.75-29.13 72.48-30.85 74.21-32.57 76.3-33.76 78.39-34.96 80.78-35.61 83.17-36.25 85.76-36.25L85.76-36.25Q89.25-36.25 92.41-35.07 95.58-33.89 97.97-31.63 100.36-29.37 101.78-26.12 103.19-22.88 103.19-18.75L103.19-18.75Q103.19-15.97 102.52-13.45 101.85-10.94 100.63-8.8 99.41-6.67 97.7-4.94 95.99-3.22 93.9-2.01 91.82-0.81 89.41-0.16 87.01 0.49 84.39 0.49ZM131.12 0L111.54 0 111.54-35.77 117.6-35.77 117.6-4.3 131.93-4.3 131.12 0Z" opacity="1" transform="matrix(1,0,0,1,0,0)" fill="#ffffff" class="slogan-text-1" data-fill-palette-color="quaternary" id="text-1"></path></svg></g></svg></g></svg></g></svg></g></svg></g><defs></defs></svg><rect width="395.52" height="177.2944763356893" fill="none" stroke="none" visibility="hidden"></rect></g></svg></g></svg>